<svg width="324" height="414" viewBox="0 0 324 414" fill="none" xmlns="http://www.w3.org/2000/svg">
<path d="M91.3943 380.92C153.695 254.612 93.1762 197.083 54.3818 171.803M115.412 253.716C175.957 239.013 234.82 239.867 276.055 328.65M179.458 247.045C120.605 99.6987 217.337 93.8315 193.381 15.3299M276.055 328.65C277.403 326.186 278.856 323.777 280.422 321.443C297.397 296.128 309.388 276.398 315.457 266.122C318.245 261.406 317.739 255.492 314.439 251.119C305.84 239.725 289.387 216.569 280.422 195.128C271.206 173.085 269.831 138.861 269.751 122.192C269.722 115.856 267.714 109.668 263.795 104.688L194.538 16.7034C194.165 16.2293 193.779 15.7715 193.381 15.3299M276.055 328.65C267.321 344.608 262.968 362.904 260.85 378.646C258.389 396.929 240.499 411.212 222.722 406.281C197.391 399.301 168.062 388.415 141.672 386.387C138.192 386.119 101.225 383.316 101.225 383.316C94.6862 382.85 88.5486 379.993 83.9815 375.29L14.2884 303.516C6.67203 295.673 4.61038 283.977 9.08584 274.002C9.08584 274.002 52.1802 179.286 53.7808 174.361C53.9407 173.869 54.1432 172.997 54.3818 171.803M193.381 15.3299C183.613 4.47896 166.743 3.45482 155.721 13.3697L73.2761 87.5382C68.6778 91.6748 65.6587 97.2813 64.736 103.397C61.603 124.17 56.5311 161.05 54.3818 171.803" stroke="#8758FF" stroke-width="12"/>
</svg>